@startuml
'https://plantuml.com/component-diagram




abstract ComposantImpl
{
   - name : $

   + this (in name : $, in o: Owner)
   getOwner(): Owner{ return Owner}
   getName() : String{ return name }
}

class Owner {
-name: String
+this (in return : String)
+equals
+hashCpde
+toString

}

class Fichier{
-contenu : $
}
class Repertoire{}
interface Composant
{
 getName(): String
 getOwner(): Owner
 getSize(): int
 getContient(): String
 appendContent (in content : String) : void
 setOwner(in owner : Owner)
}


Fichier --> ComposantImpl
Repertoire --> ComposantImpl
Composant <|.. ComposantImpl

Composant  "-elems " <--* Repertoire
Owner "1  -owner" <--   ComposantImpl

@enduml